<svg width="29" height="29" viewBox="0 0 29 29" fill="none" xmlns="http://www.w3.org/2000/svg">
<path d="M14.5 26.97C21.387 26.97 26.97 21.387 26.97 14.5C26.97 7.61304 21.387 2.03003 14.5 2.03003C7.61304 2.03003 2.03003 7.61304 2.03003 14.5C2.03003 21.387 7.61304 26.97 14.5 26.97Z" stroke="#40505D" stroke-width="1.5" stroke-linecap="round" stroke-linejoin="round"/>
<path d="M10.73 13.804C11.4667 13.804 12.064 13.2067 12.064 12.47C12.064 11.7332 11.4667 11.136 10.73 11.136C9.99325 11.136 9.396 11.7332 9.396 12.47C9.396 13.2067 9.99325 13.804 10.73 13.804Z" fill="#40505D"/>
<path d="M18.27 13.804C19.0068 13.804 19.604 13.2067 19.604 12.47C19.604 11.7332 19.0068 11.136 18.27 11.136C17.5333 11.136 16.936 11.7332 16.936 12.47C16.936 13.2067 17.5333 13.804 18.27 13.804Z" fill="#40505D"/>
<path d="M10 18C13.0933 20.7067 16.1867 20.7067 19.28 18" stroke="#40505D" stroke-width="1.5" stroke-linecap="round" stroke-linejoin="round"/>
</svg>
