<svg width="29" height="29" viewBox="0 0 29 29" fill="none" xmlns="http://www.w3.org/2000/svg">
<path d="M14.5 26.97C21.387 26.97 26.97 21.387 26.97 14.5C26.97 7.61304 21.387 2.03003 14.5 2.03003C7.61304 2.03003 2.03003 7.61304 2.03003 14.5C2.03003 21.387 7.61304 26.97 14.5 26.97Z" stroke="#40505D" stroke-width="1.5"/>
<path d="M10.73 14.094C11.4667 14.094 12.064 13.4968 12.064 12.76C12.064 12.0233 11.4667 11.426 10.73 11.426C9.99325 11.426 9.396 12.0233 9.396 12.76C9.396 13.4968 9.99325 14.094 10.73 14.094Z" fill="#40505D"/>
<path d="M18.27 14.094C19.0068 14.094 19.604 13.4968 19.604 12.76C19.604 12.0233 19.0068 11.426 18.27 11.426C17.5333 11.426 16.936 12.0233 16.936 12.76C16.936 13.4968 17.5333 14.094 18.27 14.094Z" fill="#40505D"/>
<path d="M10.15 19.72C13.05 17.2066 15.95 17.2066 18.85 19.72" stroke="#40505D" stroke-width="1.5" stroke-linecap="round" stroke-linejoin="round"/>
</svg>
