<svg width="29" height="29" viewBox="0 0 29 29" fill="none" xmlns="http://www.w3.org/2000/svg">
<path d="M14.5 26.97C21.387 26.97 26.97 21.387 26.97 14.5C26.97 7.61304 21.387 2.03003 14.5 2.03003C7.61304 2.03003 2.03003 7.61304 2.03003 14.5C2.03003 21.387 7.61304 26.97 14.5 26.97Z" stroke="#40505D" stroke-width="1.5"/>
<path d="M8.98999 9.86011L13.05 11.8901" stroke="#40505D" stroke-width="1.5" stroke-linecap="round" stroke-linejoin="round"/>
<path d="M20.01 9.86011L15.95 11.8901" stroke="#40505D" stroke-width="1.5" stroke-linecap="round" stroke-linejoin="round"/>
<path d="M11.02 15.4861C11.7247 15.4861 12.296 14.9148 12.296 14.2101C12.296 13.5054 11.7247 12.9341 11.02 12.9341C10.3153 12.9341 9.74402 13.5054 9.74402 14.2101C9.74402 14.9148 10.3153 15.4861 11.02 15.4861Z" fill="#40505D"/>
<path d="M17.98 15.4861C18.6847 15.4861 19.256 14.9148 19.256 14.2101C19.256 13.5054 18.6847 12.9341 17.98 12.9341C17.2753 12.9341 16.704 13.5054 16.704 14.2101C16.704 14.9148 17.2753 15.4861 17.98 15.4861Z" fill="#40505D"/>
<path d="M9.85999 19.4299L12.18 17.6899L14.5 19.4299L16.82 17.6899L19.14 19.4299" stroke="#40505D" stroke-width="1.5" stroke-linecap="round" stroke-linejoin="round"/>
</svg>
