<svg width="28" height="27" viewBox="0 0 28 27" fill="none" xmlns="http://www.w3.org/2000/svg">
<path d="M6.7427 10.0582L14.2281 5.2362C15.2012 4.60693 16.4817 5.30937 16.4817 6.46547V24.3704C16.4817 25.5191 15.2159 26.2216 14.2354 25.6069L6.7427 20.8874M6.7427 10.0582V20.8874M6.7427 10.0582L2.21342 10.0584C1.40854 10.0584 0.75 10.717 0.75 11.5219V19.5853C0.75 20.4121 1.57683 20.917 2.40366 20.8877L6.7427 20.8874" stroke="#40505D" stroke-width="1.5" stroke-miterlimit="10" stroke-linecap="round"/>
<path d="M19.4818 11.5244C20.982 11.9064 22.1766 12.976 22.5447 14.3443C23.0517 16.2334 21.9127 18.449 19.7248 19.3102" stroke="#40505D" stroke-width="1.5" stroke-miterlimit="10" stroke-linecap="round"/>
<path d="M19.75 8C23.0838 8.83345 25.5147 11.6255 25.8203 14.8621C26.1606 18.5848 23.6256 22.1895 19.75 23.1966" stroke="#40505D" stroke-width="1.5" stroke-miterlimit="10" stroke-linecap="round"/>
</svg>
