<svg width="33" height="29" viewBox="0 0 33 29" fill="none" xmlns="http://www.w3.org/2000/svg">
<g clip-path="url(#clip0_413_168)">
<path d="M0.901855 10.1636H15.2137C16.7198 10.1636 18.1446 9.40611 18.8932 8.10749C18.9112 8.08044 18.9202 8.05338 18.9382 8.02633C19.0645 7.79185 20.3721 5.31185 18.9382 3.03927C18.8841 2.94908 17.6035 1.00115 15.2318 0.901954C14.8259 0.883917 13.374 0.847845 12.1475 1.94806C10.903 3.06632 10.7858 4.5453 10.7678 4.8429" stroke="#FFBF8E" stroke-width="2" stroke-miterlimit="10" stroke-linecap="round"/>
<path d="M0.901855 18.5864H15.2137C16.7198 18.5864 18.1446 19.344 18.8932 20.6426C18.9112 20.6696 18.9202 20.6967 18.9382 20.7237C19.0645 20.9582 20.3721 23.4382 18.9382 25.7108C18.8841 25.801 17.6035 27.7489 15.2318 27.8481C14.8259 27.8661 13.374 27.9022 12.1475 26.802C10.903 25.6837 10.7858 24.2048 10.7678 23.9072" stroke="#FFBF8E" stroke-width="2" stroke-miterlimit="10" stroke-linecap="round"/>
<path d="M0.901855 14.2486H26.252C26.5225 14.2486 29.1198 14.2306 30.5988 12.1564C32.0597 10.1093 32.3032 7.6834 30.4004 6.00602C29.246 4.99598 26.9103 4.22943 25.1878 5.1042C23.285 6.06914 22.3381 7.80965 23.4834 10.4159" stroke="#FFBF8E" stroke-width="2" stroke-miterlimit="10" stroke-linecap="round"/>
</g>
<defs>
<clipPath id="clip0_413_168">
<rect width="32.6549" height="28.75" fill="white"/>
</clipPath>
</defs>
</svg>
