<svg width="27" height="31" viewBox="0 0 27 31" fill="none" xmlns="http://www.w3.org/2000/svg">
<path d="M21.6019 4.74951H5.39815C2.96912 4.74951 1 6.71866 1 9.14773V25.3517C1 27.7808 2.96912 29.7499 5.39815 29.7499H21.6019C24.0309 29.7499 26 27.7808 26 25.3517V9.14773C26 6.71866 24.0309 4.74951 21.6019 4.74951Z" stroke="#FFBF8E" stroke-width="2" stroke-miterlimit="10" stroke-linecap="round"/>
<path d="M1 10.9443H26" stroke="#FFBF8E" stroke-width="2" stroke-miterlimit="10" stroke-linecap="round"/>
<path d="M6.62988 1V6.55564" stroke="#FFBF8E" stroke-width="2" stroke-miterlimit="10" stroke-linecap="round"/>
<path d="M20.3704 1V6.55564" stroke="#FFBF8E" stroke-width="2" stroke-miterlimit="10" stroke-linecap="round"/>
<path d="M6.94458 15.8062C7.6042 15.8062 8.13884 16.3409 8.13892 17.0005C8.13892 17.6602 7.60425 18.1948 6.94458 18.1948C6.28496 18.1948 5.75024 17.6601 5.75024 17.0005C5.75032 16.3409 6.28501 15.8062 6.94458 15.8062Z" fill="#FFBF8E" stroke="#FFBF8E"/>
<path d="M13.5 15.8062C14.1596 15.8062 14.6943 16.3409 14.6943 17.0005C14.6943 17.6602 14.1597 18.1948 13.5 18.1948C12.8404 18.1948 12.3057 17.6601 12.3057 17.0005C12.3057 16.3409 12.8404 15.8062 13.5 15.8062Z" fill="#FFBF8E" stroke="#FFBF8E"/>
<path d="M20.0554 15.8062C20.715 15.8062 21.2497 16.3409 21.2498 17.0005C21.2498 17.6602 20.7151 18.1948 20.0554 18.1948C19.3958 18.1948 18.8611 17.6601 18.8611 17.0005C18.8612 16.3409 19.3958 15.8062 20.0554 15.8062Z" fill="#FFBF8E" stroke="#FFBF8E"/>
<path d="M6.94458 21.6304C7.6042 21.6304 8.13884 22.1651 8.13892 22.8247C8.13892 23.4844 7.60425 24.019 6.94458 24.019C6.28496 24.019 5.75024 23.4844 5.75024 22.8247C5.75032 22.1651 6.28501 21.6304 6.94458 21.6304Z" fill="#FFBF8E" stroke="#FFBF8E"/>
<path d="M13.5 21.6304C14.1596 21.6304 14.6943 22.1651 14.6943 22.8247C14.6943 23.4844 14.1597 24.019 13.5 24.019C12.8404 24.019 12.3057 23.4844 12.3057 22.8247C12.3057 22.1651 12.8404 21.6304 13.5 21.6304Z" fill="#FFBF8E" stroke="#FFBF8E"/>
<path d="M20.0554 21.6304C20.715 21.6304 21.2497 22.1651 21.2498 22.8247C21.2498 23.4844 20.7151 24.019 20.0554 24.019C19.3958 24.019 18.8611 23.4844 18.8611 22.8247C18.8612 22.1651 19.3958 21.6304 20.0554 21.6304Z" fill="#FFBF8E" stroke="#FFBF8E"/>
</svg>
