<svg width="41" height="41" viewBox="0 0 41 41" fill="none" xmlns="http://www.w3.org/2000/svg">
<circle cx="20.0901" cy="20.0901" r="19.5901" stroke="#D6CFC7"/>
<circle cx="20.0901" cy="20.0904" r="15.868" stroke="#D6CFC7" stroke-width="0.81"/>
<circle cx="20.0616" cy="20.0611" r="15.5757" fill="url(#paint0_linear_420_575)"/>
<path d="M20 21C22.4853 21 24.5 18.9853 24.5 16.5C24.5 14.0147 22.4853 12 20 12C17.5147 12 15.5 14.0147 15.5 16.5C15.5 18.9853 17.5147 21 20 21Z" stroke="#C8896A" stroke-width="1.5" stroke-linecap="round" stroke-linejoin="round"/>
<path d="M12.5 28C12.5 26.1435 13.2902 24.363 14.6967 23.0503C16.1032 21.7375 18.0109 21 20 21C21.9891 21 23.8968 21.7375 25.3033 23.0503C26.7098 24.363 27.5 26.1435 27.5 28" stroke="#C8896A" stroke-width="1.5" stroke-linecap="round" stroke-linejoin="round"/>
<defs>
<linearGradient id="paint0_linear_420_575" x1="20.0616" y1="4.48535" x2="20.0616" y2="35.6368" gradientUnits="userSpaceOnUse">
<stop stop-color="#E3D9D3"/>
<stop offset="1" stop-color="#F7D6BB"/>
</linearGradient>
</defs>
</svg>
