<svg width="72" height="72" viewBox="0 0 72 72" fill="none" xmlns="http://www.w3.org/2000/svg">
<circle cx="35.7569" cy="35.7569" r="35.2569" stroke="#D6CFC7"/>
<circle cx="35.7569" cy="35.7568" r="28.4631" stroke="#D6CFC7"/>
<circle cx="35.7061" cy="35.706" r="27.7221" fill="#F3F0EC"/>
<path d="M21.7571 50.2629C22.0689 49.589 22.998 47.7796 23.9454 45.9952C24.8012 44.3792 25.6691 42.7757 26.0909 42.0706C27.2828 40.0865 28.4625 38.0961 30.0029 36.0371C30.5713 35.2759 31.1887 34.5085 31.8733 33.7348C34.0188 31.289 35.9442 29.6668 37.5701 28.3066C40.1923 26.1166 42.5945 24.4756 44.4711 23.3088" stroke="#C8896A" stroke-width="2" stroke-miterlimit="10" stroke-linecap="round"/>
<path d="M27.1972 29.4919C26.1948 31.2265 25.8097 32.7302 25.1679 35.2509C24.0432 39.6309 23.8904 43.4057 23.9515 45.9951C26.8672 45.733 35.5897 44.5787 42.075 37.7404C45.8525 33.7597 47.8207 28.9554 48.3953 27.5203C49.5505 24.644 50.1312 22.0796 50.443 20.2078C45.6936 19.6275 41.9711 20.3825 39.7889 21.0064C37.1117 21.7738 30.5774 23.6394 27.2034 29.4857L27.1972 29.4919Z" stroke="#C8896A" stroke-width="2" stroke-miterlimit="10" stroke-linecap="round"/>
<path d="M44.6666 34.5208C44.6666 34.5208 36.7693 36.3738 30.4429 35.4504" stroke="#C8896A" stroke-width="2" stroke-miterlimit="10" stroke-linecap="round"/>
<path d="M25.7485 51.7352C25.9686 51.3608 26.8671 49.9195 28.3952 49.7074C29.3732 49.5701 30.2351 49.9882 30.8035 50.2627C32.185 50.9303 32.2767 51.6042 33.1141 51.7352C33.4869 51.7976 34.0126 51.7477 35.9197 50.2627C38.3769 48.3535 38.6153 47.5735 40.1373 47.0058C40.6691 46.8061 41.5859 46.4754 42.729 46.7C44.1654 46.9808 45.0578 47.9666 45.3757 48.3597" stroke="#C8896A" stroke-width="2" stroke-miterlimit="10" stroke-linecap="round"/>
</svg>
