<svg width="72" height="72" viewBox="0 0 72 72" fill="none" xmlns="http://www.w3.org/2000/svg">
<circle cx="35.7569" cy="35.7569" r="35.2569" stroke="#D6CFC7"/>
<circle cx="35.7569" cy="35.7568" r="28.4631" stroke="#D6CFC7"/>
<circle cx="35.7061" cy="35.706" r="27.7221" fill="#F3F0EC"/>
<path d="M21.7568 28.4014C23.0803 27.0986 25.0498 25.6388 27.3344 25.7644C29.1621 25.8743 29.682 26.926 33.1955 28.888C36.2206 30.5675 38.1744 31.6663 40.8213 31.7134C42.8853 31.7605 44.6657 31.1483 46.4934 30.5519C48.2581 29.9554 49.6446 29.2804 50.6057 28.7467" stroke="#C8896A" stroke-width="2" stroke-miterlimit="10" stroke-linecap="round"/>
<path d="M21.7568 35.8572C23.0803 34.5544 25.0498 33.0946 27.3344 33.2202C29.1621 33.3301 29.682 34.3818 33.1955 36.3438C36.2206 38.0234 38.1744 39.1221 40.8213 39.1692C42.8853 39.2163 44.6657 38.6041 46.4934 38.0077C48.2581 37.4112 49.6446 36.7362 50.6057 36.2026" stroke="#C8896A" stroke-width="2" stroke-miterlimit="10" stroke-linecap="round"/>
<path d="M21.7568 43.3133C23.0803 42.0105 25.0498 40.5507 27.3344 40.6763C29.1621 40.7861 29.682 41.8378 33.1955 43.7999C36.2206 45.4794 38.1744 46.5782 40.8213 46.6253C42.8853 46.6723 44.6657 46.0602 46.4934 45.4637C48.2581 44.8672 49.6446 44.1923 50.6057 43.6586" stroke="#C8896A" stroke-width="2" stroke-miterlimit="10" stroke-linecap="round"/>
</svg>
