<svg width="31" height="31" viewBox="0 0 31 31" fill="none" xmlns="http://www.w3.org/2000/svg">
<path d="M15.375 29.75C23.3141 29.75 29.75 23.3141 29.75 15.375C29.75 7.43591 23.3141 1 15.375 1C7.43591 1 1 7.43591 1 15.375C1 23.3141 7.43591 29.75 15.375 29.75Z" stroke="#FFBF8E" stroke-width="2" stroke-linecap="round" stroke-linejoin="round"/>
<path d="M11.029 14.5722C11.8783 14.5722 12.5668 13.8837 12.5668 13.0344C12.5668 12.1851 11.8783 11.4966 11.029 11.4966C10.1797 11.4966 9.49121 12.1851 9.49121 13.0344C9.49121 13.8837 10.1797 14.5722 11.029 14.5722Z" fill="#FFBF8E"/>
<path d="M19.7209 14.5722C20.5702 14.5722 21.2587 13.8837 21.2587 13.0344C21.2587 12.1851 20.5702 11.4966 19.7209 11.4966C18.8716 11.4966 18.1831 12.1851 18.1831 13.0344C18.1831 13.8837 18.8716 14.5722 19.7209 14.5722Z" fill="#FFBF8E"/>
<path d="M10.1875 19.4092C13.7534 22.5293 17.3193 22.5293 20.8852 19.4092" stroke="#FFBF8E" stroke-width="2" stroke-linecap="round" stroke-linejoin="round"/>
</svg>
