<svg width="72" height="72" viewBox="0 0 72 72" fill="none" xmlns="http://www.w3.org/2000/svg">
<circle cx="35.7569" cy="35.7569" r="35.2569" stroke="#D6CFC7"/>
<circle cx="35.7569" cy="35.7568" r="28.4631" stroke="#D6CFC7"/>
<circle cx="35.7061" cy="35.706" r="27.7221" fill="#F3F0EC"/>
<path d="M50.6701 38.7566C49.8431 42.2958 47.7025 45.2192 44.8835 46.7973C43.4338 47.609 41.805 48.0647 40.082 48.0647C38.6354 48.0647 37.2547 47.7432 35.9912 47.1588C35.9557 47.1425 35.9201 47.1263 35.8845 47.109C34.9602 46.6685 34.0976 46.0872 33.322 45.3881C33.0844 45.1748 32.8541 44.9486 32.6332 44.7138C31.9423 44.1304 31.1437 43.705 30.2769 43.4886L30.0132 43.429L24.4862 42.1768C24.4862 42.1768 24.4841 42.1768 24.4831 42.1768L24.3376 42.1443C24.2716 42.1335 24.2057 42.127 24.1376 42.127C23.5944 42.127 23.1244 42.4874 22.8993 43.0102C22.8082 43.2212 22.757 43.4604 22.757 43.7115C22.757 43.8825 22.781 44.046 22.825 44.1997C22.936 44.4172 23.0521 44.6326 23.1725 44.8436C23.4237 45.2863 23.6928 45.716 23.9785 46.1295C26.5567 49.8797 30.4549 52.3821 34.8702 52.7176C35.2062 52.7436 35.5443 52.7566 35.8866 52.7566C35.9263 52.7566 35.9682 52.7566 36.008 52.7566C40.3207 52.7176 44.2031 50.6136 46.9436 47.2648C48.8456 44.9389 50.198 42.0123 50.757 38.7598H50.6722L50.6701 38.7566ZM24.8474 45.0666C24.9447 44.9692 25.0462 44.875 25.1499 44.7852C25.0619 44.8945 24.9594 44.9908 24.8474 45.0666ZM24.6841 45.164C24.7406 45.1359 24.795 45.1034 24.8474 45.0677C24.8044 45.111 24.7615 45.1543 24.7196 45.1986C24.7081 45.1857 24.6956 45.1748 24.6841 45.164Z" fill="#C8896A"/>
<path d="M48.757 28.1198C48.757 28.407 48.6903 28.6768 48.5736 28.9087C48.3423 29.3747 47.9109 29.69 47.4139 29.702L46.8315 29.5697L42.1386 28.5002L40.4986 28.1263C39.9244 27.8987 39.3889 27.5769 38.9044 27.177C38.6366 26.8822 38.3563 26.6037 38.0635 26.3426C37.3144 25.6707 36.4861 25.1104 35.5994 24.6802V24.6379C35.5848 24.6444 35.5691 24.6509 35.5556 24.6585C34.2688 24.0419 32.857 23.7016 31.3774 23.7016C29.6687 23.7016 28.0516 24.1546 26.6126 24.962C23.8703 26.5008 21.7708 29.3248 20.9039 32.7568L20.757 32.7547C21.3008 29.5968 22.5835 26.7468 24.3912 24.4548C27.1503 20.9556 31.1305 18.7568 35.5566 18.7568H35.5848C35.962 18.7568 36.336 18.7742 36.7059 18.8067C41.1154 19.1903 44.9956 21.7597 47.5358 25.5775C47.8671 26.0771 48.1766 26.5983 48.461 27.138C48.5246 27.2594 48.5871 27.3807 48.6486 27.5032V27.5053C48.7174 27.6939 48.7559 27.902 48.7559 28.1187L48.757 28.1198Z" fill="#C8896A"/>
<path d="M38.757 38.7566C38.757 40.414 37.4137 41.7566 35.757 41.7566C34.1002 41.7566 32.757 40.4128 32.757 38.7566C32.757 37.0992 34.1002 35.7566 35.757 35.7566C37.4137 35.7566 38.757 37.1004 38.757 38.7566Z" fill="#C8896A"/>
</svg>
