<svg width="31" height="30" viewBox="0 0 31 30" fill="none" xmlns="http://www.w3.org/2000/svg">
<path d="M30.12 29.9993H0.853955C0.810533 29.9993 0.764217 29.9909 0.72369 29.9741C0.399477 29.8423 0.159212 29.6041 0.0231581 29.2705C0.00868428 29.2313 0 29.1892 0 29.15V27.8298C0 27.7906 0.00578952 27.7513 0.0202633 27.7149C0.18237 27.3141 0.538426 27.0057 1.02764 27.0001H1.23317C1.40975 26.9973 1.55159 26.8572 1.55159 26.6862V26.0079C1.55449 25.6771 1.69922 25.4081 1.95107 25.2119C2.02633 25.153 2.06686 25.0577 2.06686 24.9624L2.12476 19.7377L2.24634 15.864L2.46923 12.7331C2.48081 12.5902 2.38528 12.4612 2.24344 12.4136C1.33449 12.1081 1.56607 11.1859 1.56028 10.0619L1.5487 7.7859C1.5487 7.61773 1.40975 7.48038 1.23606 7.47477L0.798954 7.46076C0.42553 7.44955 0.196844 7.17486 0.0376319 6.89176C0.011579 6.84972 0 6.79926 0 6.74881V6.48253C0 6.44609 0.00578952 6.40965 0.0173686 6.37602C0.12737 6.06769 0.338687 5.87149 0.686058 5.73134L14.4072 0.212324C15.1107 -0.0707746 15.898 -0.0707746 16.6015 0.212324L30.4876 5.80141C30.9161 5.97239 31.0695 6.4573 30.9682 6.81608C30.8668 7.17486 30.5339 7.46917 30.0968 7.47477L29.7755 7.48038C29.5989 7.48038 29.46 7.62053 29.4571 7.79151L29.4455 10.0647L29.4397 11.5867C29.4397 11.9847 29.1329 12.2987 28.7508 12.4248C28.6147 12.4696 28.5221 12.5902 28.5308 12.7275L28.7508 15.808L28.8781 19.7405L28.936 24.9652C28.936 25.0605 28.9766 25.1558 29.0518 25.2147C29.3008 25.4137 29.4484 25.6828 29.4513 26.0107V26.6862C29.4542 26.8544 29.596 26.9945 29.7697 26.9973H29.9839C30.5137 27.0114 30.9971 27.4122 30.9971 27.9475V29.0631C30.9971 29.5088 30.6468 29.8227 30.2358 29.9797C30.1982 29.9937 30.1576 29.9993 30.1171 29.9993H30.12ZM27.8534 6.47692C28.2066 6.47692 28.3021 6.00883 27.9779 5.87709L16.1615 1.11207C15.7099 0.938288 15.3017 0.941091 14.8472 1.11207L3.03082 5.87709C2.7066 6.00883 2.80213 6.47692 3.15529 6.47692H27.8534ZM28.0995 7.48318H2.90924C2.73265 7.48318 2.58792 7.62333 2.58792 7.79431V9.17056C2.58792 9.34154 2.73265 9.48169 2.90924 9.48169H28.1023C28.2789 9.48169 28.4237 9.34154 28.4237 9.17056V7.79431C28.4237 7.62333 28.2789 7.48318 28.1023 7.48318H28.0995ZM5.36399 10.4851H2.90924C2.73265 10.4851 2.58792 10.6253 2.58792 10.7963V11.1747C2.58792 11.3457 2.73265 11.4858 2.90924 11.4858H5.36399C5.54057 11.4858 5.68531 11.3457 5.68531 11.1747V10.7963C5.68531 10.6253 5.54057 10.4851 5.36399 10.4851ZM9.49771 24.996C9.67429 24.996 9.81903 24.8587 9.81903 24.6877L9.89719 18.922C9.92614 16.8394 10.0246 14.8157 10.2185 12.7471C10.233 12.5986 10.1346 12.4696 9.99272 12.422C9.57587 12.279 9.30666 11.9118 9.30376 11.4718V10.7963C9.30087 10.6253 9.15613 10.4851 8.97955 10.4851H7.04006C6.86348 10.4851 6.71874 10.6253 6.71874 10.7991V11.4746C6.71874 11.9203 6.43505 12.2818 6.02979 12.422C5.88505 12.4724 5.78663 12.6014 5.8011 12.7499C5.89952 13.8094 5.98926 14.8381 6.0211 15.9061L6.14558 19.861L6.19768 24.6905C6.19768 24.8615 6.34242 24.9988 6.519 24.9988H9.49771V24.996ZM13.1133 10.4851H10.6585C10.4819 10.4851 10.3372 10.6253 10.3372 10.7963V11.1747C10.3372 11.3457 10.4819 11.4858 10.6585 11.4858H13.1133C13.2899 11.4858 13.4346 11.3457 13.4346 11.1747V10.7963C13.4346 10.6253 13.2899 10.4851 13.1133 10.4851ZM16.7375 24.996C16.9141 24.996 17.0588 24.8587 17.0588 24.6877L17.1023 19.8582L17.2354 15.9145C17.2701 14.8437 17.357 13.8151 17.4583 12.7499C17.4728 12.6014 17.3744 12.4724 17.2296 12.422C16.8012 12.2762 16.5291 11.8838 16.532 11.4129V10.7991C16.5378 10.6253 16.393 10.4851 16.2136 10.4851H14.7922C14.6157 10.4851 14.4709 10.6253 14.4709 10.7963V11.4718C14.4709 11.9175 14.1872 12.2818 13.7791 12.4192C13.6343 12.4696 13.533 12.5986 13.5475 12.7471C13.6488 13.8094 13.7356 14.8353 13.7704 15.9005L13.9006 19.8554L13.9441 24.6849C13.9441 24.8559 14.0888 24.9932 14.2654 24.9932H16.7288L16.7375 24.996ZM20.3473 10.4851H17.8925C17.7159 10.4851 17.5712 10.6253 17.5712 10.7963V11.1719C17.5712 11.3428 17.7159 11.483 17.8925 11.483H20.3473C20.5239 11.483 20.6686 11.3428 20.6686 11.1719V10.7963C20.6686 10.6253 20.5239 10.4851 20.3473 10.4851ZM24.4868 24.996C24.6634 24.996 24.8081 24.8587 24.8081 24.6877L24.8515 19.8582L24.9847 15.864C25.0194 14.8101 25.1034 13.7982 25.2047 12.7527C25.2192 12.6042 25.1207 12.4724 24.976 12.4248C24.5476 12.279 24.2784 11.8866 24.2813 11.4157V10.8019C24.2842 10.6281 24.1394 10.4879 23.9628 10.4879H22.0262C21.8497 10.4879 21.7049 10.6281 21.7049 10.7991L21.6962 11.5363C21.6904 11.9511 21.4039 12.2902 21.0102 12.4248C20.8683 12.4724 20.7699 12.5986 20.7815 12.7443L20.9957 15.693L21.1347 19.6844L21.1868 24.6933C21.1868 24.8643 21.3315 25.0016 21.5081 25.0016H24.4868V24.996ZM28.0995 10.4851H25.6447C25.4681 10.4851 25.3234 10.6253 25.3234 10.7963V11.1719C25.3234 11.3428 25.4681 11.483 25.6447 11.483H28.0995C28.276 11.483 28.4208 11.3428 28.4208 11.1719V10.7963C28.4208 10.6253 28.276 10.4851 28.0995 10.4851ZM4.84004 24.996C5.01952 24.996 5.16425 24.8531 5.16136 24.6821L5.11215 19.6228L4.9761 15.6958C4.94136 14.698 4.85741 13.745 4.76188 12.7696C4.74741 12.6098 4.60557 12.4865 4.44056 12.4865H3.82687C3.66187 12.4893 3.52292 12.6126 3.50845 12.7724C3.41582 13.7057 3.33477 14.6027 3.30292 15.5417L3.16108 19.6228L3.10897 24.6821C3.10897 24.8559 3.25082 24.996 3.43029 24.996H4.84294H4.84004ZM12.5922 24.996C12.7717 24.996 12.9164 24.8531 12.9135 24.6821L12.8643 19.6228L12.7283 15.6958C12.6935 14.698 12.6096 13.745 12.5141 12.7696C12.4996 12.6098 12.3577 12.4865 12.1927 12.4865H11.579C11.414 12.4893 11.2751 12.6126 11.2606 12.7724C11.168 13.7057 11.0869 14.6027 11.0551 15.5417L10.9133 19.6228L10.8611 24.6821C10.8611 24.8559 11.003 24.996 11.1825 24.996H12.5951H12.5922ZM19.8262 24.9932C20.0057 24.9932 20.1504 24.8503 20.1475 24.6793L20.0983 19.6816L19.9565 15.5921L19.7423 12.778C19.7307 12.6154 19.5889 12.4893 19.421 12.4893H18.816C18.6481 12.4893 18.5062 12.6182 18.4946 12.7808L18.2775 15.6986L18.1473 19.6284L18.0923 24.6877C18.0923 24.8615 18.237 25.0044 18.4165 25.0016H19.8262V24.9932ZM27.5784 24.9932C27.7579 24.9932 27.9026 24.8503 27.8997 24.6793L27.8505 19.6816L27.7087 15.5921L27.4944 12.778C27.4829 12.6154 27.341 12.4893 27.1731 12.4893H26.5681C26.4002 12.4893 26.2584 12.6182 26.2468 12.7808L26.0297 15.6986L25.8994 19.6284L25.8444 24.6849C25.8444 24.8587 25.9892 25.0016 26.1686 24.9988H27.5813L27.5784 24.9932ZM28.0995 25.9967H2.90924C2.73265 25.9967 2.58792 26.1368 2.58792 26.3078V26.6862C2.58792 26.8572 2.73265 26.9973 2.90924 26.9973H28.1023C28.2789 26.9973 28.4237 26.8572 28.4237 26.6862V26.3078C28.4237 26.1368 28.2789 25.9967 28.1023 25.9967H28.0995ZM1.03343 28.3119V28.6875C1.03343 28.8585 1.17817 28.9986 1.35475 28.9986H29.651C29.8276 28.9986 29.9724 28.8585 29.9724 28.6875V28.3119C29.9724 28.1409 29.8276 28.0008 29.651 28.0008H1.35475C1.17817 28.0008 1.03343 28.1409 1.03343 28.3119Z" fill="#F3F0EC"/>
</svg>
