<svg width="30" height="30" viewBox="0 0 30 30" fill="none" xmlns="http://www.w3.org/2000/svg">
<path d="M28.5 15C28.5 18.2056 27.3793 21.1636 25.5029 23.4701C23.027 26.5323 19.235 28.5 14.987 28.5C7.54633 28.5 1.5 22.4537 1.5 15C1.5 7.54633 7.54633 1.5 15 1.5C22.4537 1.5 28.5 7.54633 28.5 15Z" stroke="#F3F0EC" stroke-width="1.5" stroke-miterlimit="10" stroke-linecap="round"/>
<path d="M20.3054 15.031C20.3054 16.276 19.8701 17.4249 19.1413 18.3207C18.1797 19.5101 16.7069 20.2743 15.057 20.2743C12.167 20.2743 9.81866 17.9259 9.81866 15.031C9.81866 12.136 12.167 9.7876 15.062 9.7876C17.957 9.7876 20.3054 12.136 20.3054 15.031Z" fill="#F3F0EC"/>
</svg>
