<svg width="29" height="32" viewBox="0 0 29 32" fill="none" xmlns="http://www.w3.org/2000/svg">
<path d="M12.4184 4.84305C12.2171 6.02061 11.76 7.82784 10.6283 9.76803C9.03943 12.4898 6.95088 14.0458 5.78682 14.7865C3.78939 16.0561 1.88015 16.5996 0.599976 16.8494C1.839 17.0656 4.05101 17.615 6.34092 19.187C7.21691 19.7889 9.12468 21.2397 10.6297 23.7935C12.2759 26.5883 12.5772 29.24 12.636 30.6002C12.7315 28.9172 13.171 25.6825 15.4021 22.6247C15.8342 22.0315 16.7793 20.8379 18.3064 19.6677C20.7477 17.8005 23.211 17.1226 24.6 16.8494C23.3389 16.5748 19.2118 15.5097 16.0238 11.6249C13.1739 8.15364 12.7315 4.44566 12.6345 3.1001L12.4184 4.84451V4.84305Z" stroke="#F3F0EC" stroke-width="1.2" stroke-miterlimit="10" stroke-linecap="round" stroke-linejoin="round"/>
<path d="M22.7788 1.29728C22.6987 1.76803 22.5177 2.49054 22.0697 3.26669C21.4407 4.35567 20.6144 4.97837 20.1531 5.27482C19.3624 5.78281 18.6058 6.00031 18.1 6.10012C18.591 6.18652 19.4662 6.407 20.3726 7.03566C20.7197 7.27699 21.4748 7.85649 22.0697 8.87844C22.7224 9.99572 22.8411 11.0564 22.8633 11.6001C22.9004 10.9268 23.0755 9.63372 23.9581 8.41067C24.1287 8.1738 24.5025 7.6956 25.1078 7.22783C26.075 6.48149 27.0496 6.21036 27.6 6.10012C27.1 5.98988 25.4668 5.56382 24.2044 4.01005C23.0769 2.62164 22.9004 1.13937 22.8618 0.600098L22.7758 1.29728H22.7788Z" stroke="#F3F0EC" stroke-width="1.2" stroke-miterlimit="10" stroke-linecap="round" stroke-linejoin="round"/>
</svg>
