<svg width="27" height="30" viewBox="0 0 27 30" fill="none" xmlns="http://www.w3.org/2000/svg">
<path d="M26.9219 17.647C26.1776 20.7698 24.251 23.3493 21.714 24.7417C20.4092 25.458 18.9433 25.86 17.3926 25.86C16.0906 25.86 14.848 25.5764 13.7109 25.0607C13.6789 25.0464 13.6468 25.0321 13.6148 25.0168C12.7829 24.6281 12.0067 24.1152 11.3086 23.4983C11.0947 23.3102 10.8875 23.1106 10.6887 22.9033C10.0669 22.3886 9.34808 22.0133 8.56803 21.8223L8.33063 21.7697L3.35638 20.6648C3.35638 20.6648 3.3545 20.6648 3.35356 20.6648L3.22261 20.6361C3.16325 20.6266 3.1039 20.6209 3.04267 20.6209C2.55372 20.6209 2.13072 20.9389 1.92817 21.4002C1.84621 21.5864 1.80005 21.7974 1.80005 22.019C1.80005 22.1699 1.82172 22.3141 1.86128 22.4497C1.96115 22.6417 2.06572 22.8317 2.17406 23.0179C2.40016 23.4085 2.64228 23.7877 2.89947 24.1525C5.21984 27.4616 8.72819 29.6696 12.7019 29.9656C13.0043 29.9885 13.3086 30 13.6167 30C13.6525 30 13.6902 30 13.726 30C17.6074 29.9656 21.1016 28.1091 23.568 25.1543C25.2798 23.102 26.497 20.5196 27.0001 17.6498H26.9237L26.9219 17.647ZM3.68141 23.2147C3.76902 23.1287 3.8604 23.0456 3.95367 22.9664C3.87453 23.0628 3.78221 23.1478 3.68141 23.2147ZM3.53444 23.3006C3.58531 23.2758 3.6343 23.2471 3.68141 23.2156C3.64278 23.2538 3.60415 23.292 3.56647 23.3312C3.55611 23.3197 3.5448 23.3102 3.53444 23.3006Z" fill="#F3F0EC"/>
<path d="M25.2 8.26149C25.2 8.51488 25.14 8.75297 25.035 8.9576C24.8268 9.36876 24.4386 9.64701 23.9912 9.65753L23.467 9.54087L19.2434 8.59711L17.7674 8.26723C17.2507 8.06643 16.7687 7.78244 16.3327 7.4296C16.0917 7.16952 15.8394 6.92378 15.5759 6.69334C14.9017 6.1005 14.1562 5.60615 13.3582 5.22654V5.18925C13.345 5.19498 13.331 5.20072 13.3188 5.20742C12.1607 4.66334 10.89 4.3631 9.55843 4.3631C8.02053 4.3631 6.56515 4.76279 5.27012 5.47515C2.80198 6.83294 0.912425 9.32477 0.132222 12.353L0 12.3511C0.489502 9.56478 1.64387 7.05 3.27085 5.02765C5.754 1.94011 9.33618 0 13.3197 0H13.345C13.6845 0 14.0212 0.0152991 14.3541 0.0439848C18.3226 0.382476 21.8147 2.6496 24.101 6.01826C24.3992 6.45907 24.6777 6.919 24.9337 7.39518C24.9909 7.50227 25.0471 7.60937 25.1025 7.71742V7.71933C25.1644 7.88571 25.1991 8.06929 25.1991 8.26053L25.2 8.26149Z" fill="#F3F0EC"/>
<path d="M16.2 17.6471C16.2 19.1095 14.9911 20.2942 13.5 20.2942C12.009 20.2942 10.8 19.1085 10.8 17.6471C10.8 16.1846 12.009 15 13.5 15C14.9911 15 16.2 16.1857 16.2 17.6471Z" fill="#F3F0EC"/>
</svg>
